# xmcd
#
# Track frame offsets: 
#        150
#        12245
#        25350
#        39267
#        51685
#        62185
#        74442
#        85125
#        98225
#        109802
#        121455
#        133547
#        144797
#        155702
#        169132
#        181082
#        194955
#        209105
#        222102
#        236005
#        249034
#        263650
#        276165
#
# Disc length: 3866 seconds
#
# Revision: 1
# Processed by: cddbd v1.5.2PL0 Copyright (c) Steve Scherf et al.
# Submitted via: ExactAudioCopy v1.0b1
#
DISCID=5a0f1817
DTITLE=Lavern Baker - Chronological 1949-1954
DYEAR=2005
DGENRE=Blues
TTITLE0=Easy Baby
TTITLE1=I Wonder, Baby
TTITLE2=Take Out Some Time
TTITLE3=I'll Try (I've Tried)
TTITLE4=How Long
TTITLE5=I Want To Rock
TTITLE6=Good Daddy
TTITLE7=I Want A Lavendar Cadillac
TTITLE8=Make It Good
TTITLE9=Trying
TTITLE10=Pig Latin Blues
TTITLE11=Lost Child
TTITLE12=Must I Cry Again
TTITLE13=You'll Be Crying
TTITLE14=How Can You Leave A Man Like This
TTITLE15=Soul On Fire
TTITLE16=I'm Living My Life For You
TTITLE17=I'm In A Crying Mood
TTITLE18=I Can't Hold Out Any Longer
TTITLE19=Of Course I Do
TTITLE20=Tomorrow Night
TTITLE21=You Better Stop
TTITLE22=Tweedle Dee
EXTD=
EXTT0=
EXTT1=
EXTT2=
EXTT3=
EXTT4=
EXTT5=
EXTT6=
EXTT7=
EXTT8=
EXTT9=
EXTT10=
EXTT11=
EXTT12=
EXTT13=
EXTT14=
EXTT15=
EXTT16=
EXTT17=
EXTT18=
EXTT19=
EXTT20=
EXTT21=
EXTT22=
PLAYORDER=
